<svg id="svgQrWrapper" viewBox="0 0 300 300" xmlns="http://www.w3.org/2000/svg" xmlns:xlink="http://www.w3.org/1999/xlink" style="width: 100%; height: 100%; background-color: #313338;"><svg xmlns="http://www.w3.org/2000/svg" viewBox="0 0 2000 2000" width="300" height="300" fill="none"><g transform=""><defs><style>.cls-10ne1{fill:#003f2e}.cls-10ne3{fill:#fce9d2}.cls-10ne4{fill:#b25340}.cls-10ne5{fill:#9e493b}</style></defs><g id="\u0421\u043B\u043E\u0439_14" data-name="\u0421\u043B\u043E\u0439 14"><path d="M687.94 1453.51h576v178.94h-576z" class="cls-10ne1"/><path d="M771.85 834 611.67 351.85a71.4 71.4 0 0 0-12.12-22.2 78.53 78.53 0 0 0-13.34-13A94.6 94.6 0 0 0 560 302.48a117.18 117.18 0 0 0-31.71-6.48 137 137 0 0 0-39.22 3.19q-6.92 1.56-13.83 3.85c-32.46 10.79-57.87 31.63-71.83 55.93a88.8 88.8 0 0 0-11 30.4 72.13 72.13 0 0 0 2.68 34.37l2.46 7.42a24.09 24.09 0 0 0 6.15 9.71 30.41 30.41 0 0 0 11.05 6.74 38.84 38.84 0 0 0 6.95 1.74 45.67 45.67 0 0 0 21.3-1.87c17.07-5.67 28.28-19.71 27.89-33.41a23.84 23.84 0 0 0-1.2-6.8l-4.52-13.62c-5.39-16.2 7.7-35 29-41a41.59 41.59 0 0 1 30.07 2.66c6 3.17 10.74 7.93 13 13.8.13.34.26.68.37 1l162 487.66c2.11 6.48 10.4 9.64 18.67 6.9l42.49-14.12c8.29-2.71 13.23-10.15 11.08-16.55Z" style="fill: rgb(242, 103, 63);"/><path d="m754.23 780.93-6.05-18.23q-8.16 5.2-16.39 10.57-25.54 16.73-49.17 33.23l6.11 18.38q27-18.76 56-37.73ZM732.67 716l-6-18.16q-12.23 7.71-24.6 15.79-21.19 13.85-41.09 27.61l6.11 18.4q23.26-16 47.88-32.13 8.86-5.81 17.7-11.51ZM711.11 651.13l-6-18.07q-16.27 10.14-32.84 21-16.9 11-33 22l6.12 18.42q19.41-13.25 39.78-26.58 13.04-8.54 25.94-16.77ZM689.56 586.28l-6-18q-20.33 12.53-41.1 26.08-12.68 8.26-24.86 16.52l6.12 18.42q15.53-10.5 31.64-21.06 17.24-11.24 34.2-21.96ZM668 521.45l-5.93-17.85q-24.35 14.83-49.37 31.15-8.47 5.54-16.73 11l6.13 18.43q11.58-7.79 23.51-15.59Q647 534.62 668 521.45ZM646.5 456.68 640.61 439q-28.33 17-57.61 36.11-4.32 2.82-8.58 5.64l6.11 18.39c5.07-3.38 10.21-6.76 15.37-10.15q25.56-16.75 50.6-32.31ZM625 392l-5.85-17.6q-32.31 19.25-65.94 41.14a3.62 3.62 0 0 0-.41.27l6.09 18.35c2.4-1.59 4.8-3.17 7.22-4.75Q595.92 409.83 625 392ZM469.68 407.27l-4-12.13q-32.83 23.22-62 45.81a30.41 30.41 0 0 0 11.05 6.74 38.84 38.84 0 0 0 6.95 1.74q23.74-17.51 49.2-35.36a23.84 23.84 0 0 0-1.2-6.8ZM599.55 329.65a78.53 78.53 0 0 0-13.34-13q-30.39 18.19-62 38.72c6 3.17 10.74 7.93 13 13.8q31.62-20.7 62.34-39.52ZM528.28 296.05a137 137 0 0 0-39.22 3.19 1840.778 1840.778 0 0 0-85.66 59.78 88.8 88.8 0 0 0-11 30.4c35.25-26 73.28-52.55 114.19-79.34q10.89-7.08 21.69-14.03Z" class="cls-10ne3"/><path d="M1267.62 882.62A43.4 43.4 0 0 0 1310 927l145.66 3.48A43.41 43.41 0 0 1 1498 975l-5.68 237.89a43.4 43.4 0 0 1-44.43 42.36l-145.66-3.48a43.4 43.4 0 0 0-44.42 42.35 43.39 43.39 0 0 0 42.35 44.43l215.43 5.15a43.42 43.42 0 0 0 44.43-42.36l9.82-411.46a43.4 43.4 0 0 0-42.35-44.42l-215.43-5.15a43.4 43.4 0 0 0-44.44 42.31Z" class="cls-10ne1"/><path d="m1209.314 419.547 78.227 26.175-136.104 406.773-78.228-26.174z" class="cls-10ne4"/><path d="m1287.55 445.72-6.06 18.12-56.85-19.02-130.05 388.65-21.38-7.15 136.11-406.77 78.23 26.17z" class="cls-10ne5"/><path d="m1348.719 332.758 78.227 26.174-136.105 406.774-78.227-26.175z" class="cls-10ne4"/><path d="m1426.95 358.93-6.06 18.12-56.85-19.02-130.05 388.65-21.37-7.15 136.1-406.77 78.23 26.17z" class="cls-10ne5"/><path d="m1413.81 629.37-19.72 206.75-1.7 17.77-1.69 17.73-5.89 61.79-16.11 168.91-1.48 15.54-22.79 239-2.8 29.36-6.81 71.47-1.09 11.39-8.06 84.51-694.9 1-5.94-59.29-1.24-12.33q-1.38-13.89-2.78-27.78-1.56-15.54-3.11-31.07l-22.62-225.73q-1.51-15.06-3-30.13l-23.36-232.95q-2.75-27.48-5.5-55-1.46-14.48-2.9-29-.81-8-1.61-16.09l-20.64-205.85Z" style="fill: rgb(240, 79, 38);"/><path d="M1403.11 741.6a84.55 84.55 0 0 0 23.24-36.76c11.62-38-9.2-70.45-12.54-75.47H538.07c-2.89 3.26-24.85 28.81-18.69 64.15 5 28.78 25.28 44.62 29.94 48.08Z" class="cls-10ne1"/><rect width="628.34" height="628.34" x="661.78" y="825.18" rx="146.59" style="fill: #f2f3f5;"/></g><g transform="translate(700, 870)scale(1.8)" fill="none"><svg width="300" height="300"><style>.background-color{ fill: #fff; }.dot-color{ fill: #003f2e; }.corners-square-color-0-0{ fill: #003f2e; }.corners-dot-color-0-0{ fill: #003f2e; }.corners-square-color-1-0{ fill: #003f2e; }.corners-dot-color-1-0{ fill: #003f2e; }.corners-square-color-0-1{ fill: #003f2e; }.corners-dot-color-0-1{ fill: #003f2e; }</style><defs/><g class="dot-color"><path d="M 5 115v 5a 5 5, 0, 0, 0, 5 5h 5v -5a 5 5, 0, 0, 0, -5 -5" transform="rotate(90,10,120)"/><path d="M 5 135v 10h 10v -5a 5 5, 0, 0, 0, -5 -5" transform="rotate(-90,10,140)"/><rect x="5" y="145" width="10" height="10" transform="rotate(0,10,150)"/><path d="M 5 175v 10h 10v -5a 5 5, 0, 0, 0, -5 -5" transform="rotate(-90,10,180)"/><rect x="5" y="185" width="10" height="10" transform="rotate(0,10,190)"/><path d="M 5 205v 10h 10v -5a 5 5, 0, 0, 0, -5 -5" transform="rotate(-90,10,210)"/><path d="M 15 85v 10h 10v -5a 5 5, 0, 0, 0, -5 -5" transform="rotate(-90,20,90)"/><path d="M 15 125v 10h 10v -5a 5 5, 0, 0, 0, -5 -5" transform="rotate(-90,20,130)"/><path d="M 15 145v 10h 10v -5a 5 5, 0, 0, 0, -5 -5" transform="rotate(90,20,150)"/><path d="M 15 165v 10h 10v -5a 5 5, 0, 0, 0, -5 -5" transform="rotate(-90,20,170)"/><rect x="15" y="175" width="10" height="10" transform="rotate(0,20,180)"/><rect x="15" y="185" width="10" height="10" transform="rotate(0,20,190)"/><rect x="15" y="195" width="10" height="10" transform="rotate(0,20,200)"/><rect x="15" y="205" width="10" height="10" transform="rotate(0,20,210)"/><path d="M 25 85v 10h 10v -5a 5 5, 0, 0, 0, -5 -5" transform="rotate(90,30,90)"/><path d="M 25 105v 10h 10v -5a 5 5, 0, 0, 0, -5 -5" transform="rotate(-90,30,110)"/><rect x="25" y="115" width="10" height="10" transform="rotate(0,30,120)"/><rect x="25" y="125" width="10" height="10" transform="rotate(0,30,130)"/><path d="M 25 135v 10h 10v -5a 5 5, 0, 0, 0, -5 -5" transform="rotate(90,30,140)"/><path d="M 25 155v 10h 10v -5a 5 5, 0, 0, 0, -5 -5" transform="rotate(-90,30,160)"/><rect x="25" y="165" width="10" height="10" transform="rotate(0,30,170)"/><path d="M 25 185v 10h 10v -5a 5 5, 0, 0, 0, -5 -5" transform="rotate(90,30,190)"/><path d="M 25 205v 10h 10v -5a 5 5, 0, 0, 0, -5 -5" transform="rotate(90,30,210)"/><rect x="35" y="105" width="10" height="10" transform="rotate(0,40,110)"/><rect x="35" y="125" width="10" height="10" transform="rotate(0,40,130)"/><rect x="35" y="155" width="10" height="10" transform="rotate(0,40,160)"/><rect x="35" y="165" width="10" height="10" transform="rotate(0,40,170)"/><rect x="35" y="175" width="10" height="10" transform="rotate(0,40,180)"/><path d="M 35 195v 10h 10v -5a 5 5, 0, 0, 0, -5 -5" transform="rotate(-90,40,200)"/><rect x="45" y="105" width="10" height="10" transform="rotate(0,50,110)"/><rect x="45" y="115" width="10" height="10" transform="rotate(0,50,120)"/><path d="M 45 125v 10h 10v -5a 5 5, 0, 0, 0, -5 -5" transform="rotate(90,50,130)"/><rect x="45" y="165" width="10" height="10" transform="rotate(0,50,170)"/><rect x="45" y="175" width="10" height="10" transform="rotate(0,50,180)"/><rect x="45" y="185" width="10" height="10" transform="rotate(0,50,190)"/><rect x="45" y="195" width="10" height="10" transform="rotate(0,50,200)"/><rect x="45" y="205" width="10" height="10" transform="rotate(0,50,210)"/><rect x="55" y="105" width="10" height="10" transform="rotate(0,60,110)"/><rect x="55" y="195" width="10" height="10" transform="rotate(0,60,200)"/><rect x="55" y="205" width="10" height="10" transform="rotate(0,60,210)"/><path d="M 65 85v 5a 5 5, 0, 0, 0, 5 5h 5v -5a 5 5, 0, 0, 0, -5 -5" transform="rotate(90,70,90)"/><rect x="65" y="105" width="10" height="10" transform="rotate(0,70,110)"/><path d="M 65 125v 10h 10v -5a 5 5, 0, 0, 0, -5 -5" transform="rotate(-90,70,130)"/><path d="M 65 145v 10h 10v -5a 5 5, 0, 0, 0, -5 -5" transform="rotate(-90,70,150)"/><path d="M 65 165v 10h 10v -5a 5 5, 0, 0, 0, -5 -5" transform="rotate(-90,70,170)"/><path d="M 65 185v 10h 10v -5a 5 5, 0, 0, 0, -5 -5" transform="rotate(-90,70,190)"/><path d="M 65 205v 10h 10v -5a 5 5, 0, 0, 0, -5 -5" transform="rotate(90,70,210)"/><path d="M 75 95v 10h 10v -5a 5 5, 0, 0, 0, -5 -5" transform="rotate(-90,80,100)"/><rect x="75" y="105" width="10" height="10" transform="rotate(0,80,110)"/><rect x="75" y="125" width="10" height="10" transform="rotate(0,80,130)"/><rect x="75" y="135" width="10" height="10" transform="rotate(0,80,140)"/><rect x="75" y="145" width="10" height="10" transform="rotate(0,80,150)"/><rect x="75" y="155" width="10" height="10" transform="rotate(0,80,160)"/><rect x="75" y="165" width="10" height="10" transform="rotate(0,80,170)"/><rect x="75" y="175" width="10" height="10" transform="rotate(0,80,180)"/><path d="M 75 185v 10h 10v -5a 5 5, 0, 0, 0, -5 -5" transform="rotate(90,80,190)"/><path d="M 85 15v 10h 10v -5a 5 5, 0, 0, 0, -5 -5" transform="rotate(-90,90,20)"/><rect x="85" y="25" width="10" height="10" transform="rotate(0,90,30)"/><rect x="85" y="35" width="10" height="10" transform="rotate(0,90,40)"/><path d="M 85 55v 10h 10v -5a 5 5, 0, 0, 0, -5 -5" transform="rotate(-90,90,60)"/><path d="M 85 65v 10h 10v -5a 5 5, 0, 0, 0, -5 -5" transform="rotate(90,90,70)"/><rect x="85" y="95" width="10" height="10" transform="rotate(0,90,100)"/><path d="M 85 105v 10h 10v -5a 5 5, 0, 0, 0, -5 -5" transform="rotate(90,90,110)"/><rect x="85" y="125" width="10" height="10" transform="rotate(0,90,130)"/><path d="M 85 135v 10h 10v -5a 5 5, 0, 0, 0, -5 -5" transform="rotate(90,90,140)"/><path d="M 85 195v 5a 5 5, 0, 0, 0, 5 5h 5v -5a 5 5, 0, 0, 0, -5 -5" transform="rotate(90,90,200)"/><path d="M 85 265v 10h 10v -5a 5 5, 0, 0, 0, -5 -5" transform="rotate(-90,90,270)"/><path d="M 85 275v 10h 10v -5a 5 5, 0, 0, 0, -5 -5" transform="rotate(90,90,280)"/><rect x="95" y="35" width="10" height="10" transform="rotate(0,100,40)"/><rect x="95" y="45" width="10" height="10" transform="rotate(0,100,50)"/><path d="M 95 55v 10h 10v -5a 5 5, 0, 0, 0, -5 -5" transform="rotate(90,100,60)"/><path d="M 95 85v 5a 5 5, 0, 0, 0, 5 5h 5v -5a 5 5, 0, 0, 0, -5 -5" transform="rotate(90,100,90)"/><path d="M 95 145v 10h 10v -5a 5 5, 0, 0, 0, -5 -5" transform="rotate(-90,100,150)"/><rect x="95" y="155" width="10" height="10" transform="rotate(0,100,160)"/><rect x="95" y="165" width="10" height="10" transform="rotate(0,100,170)"/><path d="M 95 225v 10h 10v -5a 5 5, 0, 0, 0, -5 -5" transform="rotate(-90,100,230)"/><rect x="95" y="235" width="10" height="10" transform="rotate(0,100,240)"/><rect x="95" y="245" width="10" height="10" transform="rotate(0,100,250)"/><rect x="95" y="255" width="10" height="10" transform="rotate(0,100,260)"/><path d="M 95 265v 10h 10v -5a 5 5, 0, 0, 0, -5 -5" transform="rotate(90,100,270)"/><path d="M 95 285v 5a 5 5, 0, 0, 0, 5 5h 5v -5a 5 5, 0, 0, 0, -5 -5" transform="rotate(90,100,290)"/><path d="M 105 5v 10h 10v -5a 5 5, 0, 0, 0, -5 -5" transform="rotate(-90,110,10)"/><path d="M 105 15v 10h 10v -5a 5 5, 0, 0, 0, -5 -5" transform="rotate(90,110,20)"/><path d="M 105 65v 5a 5 5, 0, 0, 0, 5 5h 5v -5a 5 5, 0, 0, 0, -5 -5" transform="rotate(90,110,70)"/><path d="M 105 105v 10h 10v -5a 5 5, 0, 0, 0, -5 -5" transform="rotate(-90,110,110)"/><path d="M 105 115v 10h 10v -5a 5 5, 0, 0, 0, -5 -5" transform="rotate(90,110,120)"/><path d="M 105 135v 5a 5 5, 0, 0, 0, 5 5h 5v -5a 5 5, 0, 0, 0, -5 -5" transform="rotate(90,110,140)"/><rect x="105" y="155" width="10" height="10" transform="rotate(0,110,160)"/><rect x="105" y="165" width="10" height="10" transform="rotate(0,110,170)"/><path d="M 105 175v 10h 10v -5a 5 5, 0, 0, 0, -5 -5" transform="rotate(90,110,180)"/><rect x="105" y="225" width="10" height="10" transform="rotate(0,110,230)"/><rect x="105" y="235" width="10" height="10" transform="rotate(0,110,240)"/><rect x="105" y="245" width="10" height="10" transform="rotate(0,110,250)"/><rect x="105" y="255" width="10" height="10" transform="rotate(0,110,260)"/><path d="M 105 275v 5a 5 5, 0, 0, 0, 5 5h 5v -5a 5 5, 0, 0, 0, -5 -5" transform="rotate(90,110,280)"/><path d="M 115 35v 10h 10v -5a 5 5, 0, 0, 0, -5 -5" transform="rotate(-90,120,40)"/><rect x="115" y="45" width="10" height="10" transform="rotate(0,120,50)"/><path d="M 115 85v 5a 5 5, 0, 0, 0, 5 5h 5v -5a 5 5, 0, 0, 0, -5 -5" transform="rotate(90,120,90)"/><rect x="115" y="165" width="10" height="10" transform="rotate(0,120,170)"/><path d="M 115 185v 10h 10v -5a 5 5, 0, 0, 0, -5 -5" transform="rotate(-90,120,190)"/><rect x="115" y="195" width="10" height="10" transform="rotate(0,120,200)"/><rect x="115" y="235" width="10" height="10" transform="rotate(0,120,240)"/><rect x="115" y="255" width="10" height="10" transform="rotate(0,120,260)"/><path d="M 115 285v 10h 10v -5a 5 5, 0, 0, 0, -5 -5" transform="rotate(-90,120,290)"/><path d="M 125 15v 5a 5 5, 0, 0, 0, 5 5h 5v -5a 5 5, 0, 0, 0, -5 -5" transform="rotate(90,130,20)"/><rect x="125" y="35" width="10" height="10" transform="rotate(0,130,40)"/><path d="M 125 45v 10h 10v -5a 5 5, 0, 0, 0, -5 -5" transform="rotate(90,130,50)"/><path d="M 125 65v 10h 10v -5a 5 5, 0, 0, 0, -5 -5" transform="rotate(-90,130,70)"/><path d="M 125 75v 10h 10v -5a 5 5, 0, 0, 0, -5 -5" transform="rotate(90,130,80)"/><path d="M 125 95v 5a 5 5, 0, 0, 0, 5 5h 5v -5a 5 5, 0, 0, 0, -5 -5" transform="rotate(90,130,100)"/><rect x="125" y="165" width="10" height="10" transform="rotate(0,130,170)"/><path d="M 125 175v 10h 10v -5a 5 5, 0, 0, 0, -5 -5" transform="rotate(90,130,180)"/><rect x="125" y="195" width="10" height="10" transform="rotate(0,130,200)"/><path d="M 125 215v 5a 5 5, 0, 0, 0, 5 5h 5v -5a 5 5, 0, 0, 0, -5 -5" transform="rotate(90,130,220)"/><rect x="125" y="235" width="10" height="10" transform="rotate(0,130,240)"/><rect x="125" y="255" width="10" height="10" transform="rotate(0,130,260)"/><rect x="125" y="265" width="10" height="10" transform="rotate(0,130,270)"/><rect x="125" y="275" width="10" height="10" transform="rotate(0,130,280)"/><rect x="125" y="285" width="10" height="10" transform="rotate(0,130,290)"/><path d="M 135 5v 10h 10v -5a 5 5, 0, 0, 0, -5 -5" transform="rotate(-90,140,10)"/><path d="M 135 85v 10h 10v -5a 5 5, 0, 0, 0, -5 -5" transform="rotate(-90,140,90)"/><path d="M 135 115v 10h 10v -5a 5 5, 0, 0, 0, -5 -5" transform="rotate(-90,140,120)"/><path d="M 135 125v 10h 10v -5a 5 5, 0, 0, 0, -5 -5" transform="rotate(90,140,130)"/><rect x="135" y="165" width="10" height="10" transform="rotate(0,140,170)"/><path d="M 135 185v 10h 10v -5a 5 5, 0, 0, 0, -5 -5" transform="rotate(-90,140,190)"/><rect x="135" y="195" width="10" height="10" transform="rotate(0,140,200)"/><path d="M 135 225v 10h 10v -5a 5 5, 0, 0, 0, -5 -5" transform="rotate(-90,140,230)"/><rect x="135" y="235" width="10" height="10" transform="rotate(0,140,240)"/><rect x="135" y="255" width="10" height="10" transform="rotate(0,140,260)"/><path d="M 135 265v 10h 10v -5a 5 5, 0, 0, 0, -5 -5" transform="rotate(90,140,270)"/><rect x="135" y="285" width="10" height="10" transform="rotate(0,140,290)"/><path d="M 145 5v 10h 10v -5a 5 5, 0, 0, 0, -5 -5" transform="rotate(90,150,10)"/><path d="M 145 25v 10h 10v -5a 5 5, 0, 0, 0, -5 -5" transform="rotate(-90,150,30)"/><rect x="145" y="35" width="10" height="10" transform="rotate(0,150,40)"/><rect x="145" y="45" width="10" height="10" transform="rotate(0,150,50)"/><rect x="145" y="55" width="10" height="10" transform="rotate(0,150,60)"/><path d="M 145 65v 10h 10v -5a 5 5, 0, 0, 0, -5 -5" transform="rotate(90,150,70)"/><rect x="145" y="85" width="10" height="10" transform="rotate(0,150,90)"/><rect x="145" y="95" width="10" height="10" transform="rotate(0,150,100)"/><rect x="145" y="105" width="10" height="10" transform="rotate(0,150,110)"/><path d="M 145 115v 10h 10v -5a 5 5, 0, 0, 0, -5 -5" transform="rotate(90,150,120)"/><path d="M 145 145v 10h 10v -5a 5 5, 0, 0, 0, -5 -5" transform="rotate(-90,150,150)"/><rect x="145" y="165" width="10" height="10" transform="rotate(0,150,170)"/><rect x="145" y="175" width="10" height="10" transform="rotate(0,150,180)"/><rect x="145" y="185" width="10" height="10" transform="rotate(0,150,190)"/><rect x="145" y="195" width="10" height="10" transform="rotate(0,150,200)"/><rect x="145" y="205" width="10" height="10" transform="rotate(0,150,210)"/><rect x="145" y="215" width="10" height="10" transform="rotate(0,150,220)"/><rect x="145" y="225" width="10" height="10" transform="rotate(0,150,230)"/><rect x="145" y="235" width="10" height="10" transform="rotate(0,150,240)"/><rect x="145" y="245" width="10" height="10" transform="rotate(0,150,250)"/><rect x="145" y="255" width="10" height="10" transform="rotate(0,150,260)"/><path d="M 145 285v 10h 10v -5a 5 5, 0, 0, 0, -5 -5" transform="rotate(90,150,290)"/><path d="M 155 15v 5a 5 5, 0, 0, 0, 5 5h 5v -5a 5 5, 0, 0, 0, -5 -5" transform="rotate(90,160,20)"/><rect x="155" y="55" width="10" height="10" transform="rotate(0,160,60)"/><path d="M 155 75v 10h 10v -5a 5 5, 0, 0, 0, -5 -5" transform="rotate(-90,160,80)"/><rect x="155" y="85" width="10" height="10" transform="rotate(0,160,90)"/><rect x="155" y="95" width="10" height="10" transform="rotate(0,160,100)"/><path d="M 155 125v 10h 10v -5a 5 5, 0, 0, 0, -5 -5" transform="rotate(-90,160,130)"/><rect x="155" y="135" width="10" height="10" transform="rotate(0,160,140)"/><path d="M 155 145v 10h 10v -5a 5 5, 0, 0, 0, -5 -5" transform="rotate(90,160,150)"/><rect x="155" y="175" width="10" height="10" transform="rotate(0,160,180)"/><rect x="155" y="185" width="10" height="10" transform="rotate(0,160,190)"/><rect x="155" y="205" width="10" height="10" transform="rotate(0,160,210)"/><path d="M 155 225v 10h 10v -5a 5 5, 0, 0, 0, -5 -5" transform="rotate(90,160,230)"/><rect x="155" y="245" width="10" height="10" transform="rotate(0,160,250)"/><rect x="155" y="255" width="10" height="10" transform="rotate(0,160,260)"/><path d="M 165 5v 5a 5 5, 0, 0, 0, 5 5h 5v -5a 5 5, 0, 0, 0, -5 -5" transform="rotate(90,170,10)"/><path d="M 165 25v 10h 10v -5a 5 5, 0, 0, 0, -5 -5" transform="rotate(-90,170,30)"/><rect x="165" y="35" width="10" height="10" transform="rotate(0,170,40)"/><rect x="165" y="45" width="10" height="10" transform="rotate(0,170,50)"/><rect x="165" y="55" width="10" height="10" transform="rotate(0,170,60)"/><rect x="165" y="65" width="10" height="10" transform="rotate(0,170,70)"/><rect x="165" y="75" width="10" height="10" transform="rotate(0,170,80)"/><path d="M 165 95v 10h 10v -5a 5 5, 0, 0, 0, -5 -5" transform="rotate(90,170,100)"/><rect x="165" y="135" width="10" height="10" transform="rotate(0,170,140)"/><path d="M 165 155v 10h 10v -5a 5 5, 0, 0, 0, -5 -5" transform="rotate(-90,170,160)"/><rect x="165" y="165" width="10" height="10" transform="rotate(0,170,170)"/><rect x="165" y="175" width="10" height="10" transform="rotate(0,170,180)"/><rect x="165" y="185" width="10" height="10" transform="rotate(0,170,190)"/><rect x="165" y="195" width="10" height="10" transform="rotate(0,170,200)"/><rect x="165" y="205" width="10" height="10" transform="rotate(0,170,210)"/><path d="M 165 215v 10h 10v -5a 5 5, 0, 0, 0, -5 -5" transform="rotate(90,170,220)"/><path d="M 165 235v 10h 10v -5a 5 5, 0, 0, 0, -5 -5" transform="rotate(-90,170,240)"/><rect x="165" y="245" width="10" height="10" transform="rotate(0,170,250)"/><path d="M 165 255v 10h 10v -5a 5 5, 0, 0, 0, -5 -5" transform="rotate(90,170,260)"/><path d="M 165 275v 10h 10v -5a 5 5, 0, 0, 0, -5 -5" transform="rotate(-90,170,280)"/><path d="M 165 285v 10h 10v -5a 5 5, 0, 0, 0, -5 -5" transform="rotate(90,170,290)"/><rect x="175" y="25" width="10" height="10" transform="rotate(0,180,30)"/><rect x="175" y="35" width="10" height="10" transform="rotate(0,180,40)"/><path d="M 175 55v 10h 10v -5a 5 5, 0, 0, 0, -5 -5" transform="rotate(90,180,60)"/><rect x="175" y="75" width="10" height="10" transform="rotate(0,180,80)"/><rect x="175" y="85" width="10" height="10" transform="rotate(0,180,90)"/><path d="M 175 115v 5a 5 5, 0, 0, 0, 5 5h 5v -5a 5 5, 0, 0, 0, -5 -5" transform="rotate(90,180,120)"/><rect x="175" y="135" width="10" height="10" transform="rotate(0,180,140)"/><rect x="175" y="165" width="10" height="10" transform="rotate(0,180,170)"/><path d="M 175 205v 10h 10v -5a 5 5, 0, 0, 0, -5 -5" transform="rotate(90,180,210)"/><path d="M 175 235v 10h 10v -5a 5 5, 0, 0, 0, -5 -5" transform="rotate(90,180,240)"/><path d="M 185 5v 5a 5 5, 0, 0, 0, 5 5h 5v -5a 5 5, 0, 0, 0, -5 -5" transform="rotate(90,190,10)"/><rect x="185" y="35" width="10" height="10" transform="rotate(0,190,40)"/><path d="M 185 65v 5a 5 5, 0, 0, 0, 5 5h 5v -5a 5 5, 0, 0, 0, -5 -5" transform="rotate(90,190,70)"/><rect x="185" y="85" width="10" height="10" transform="rotate(0,190,90)"/><path d="M 185 105v 10h 10v -5a 5 5, 0, 0, 0, -5 -5" transform="rotate(-90,190,110)"/><rect x="185" y="135" width="10" height="10" transform="rotate(0,190,140)"/><path d="M 185 155v 10h 10v -5a 5 5, 0, 0, 0, -5 -5" transform="rotate(-90,190,160)"/><rect x="185" y="165" width="10" height="10" transform="rotate(0,190,170)"/><rect x="185" y="175" width="10" height="10" transform="rotate(0,190,180)"/><path d="M 185 185v 10h 10v -5a 5 5, 0, 0, 0, -5 -5" transform="rotate(90,190,190)"/><path d="M 185 225v 10h 10v -5a 5 5, 0, 0, 0, -5 -5" transform="rotate(-90,190,230)"/><path d="M 185 245v 10h 10v -5a 5 5, 0, 0, 0, -5 -5" transform="rotate(-90,190,250)"/><rect x="185" y="255" width="10" height="10" transform="rotate(0,190,260)"/><rect x="185" y="265" width="10" height="10" transform="rotate(0,190,270)"/><path d="M 195 25v 10h 10v -5a 5 5, 0, 0, 0, -5 -5" transform="rotate(-90,200,30)"/><path d="M 195 35v 10h 10v -5a 5 5, 0, 0, 0, -5 -5" transform="rotate(90,200,40)"/><path d="M 195 75v 10h 10v -5a 5 5, 0, 0, 0, -5 -5" transform="rotate(-90,200,80)"/><rect x="195" y="85" width="10" height="10" transform="rotate(0,200,90)"/><rect x="195" y="95" width="10" height="10" transform="rotate(0,200,100)"/><path d="M 195 105v 10h 10v -5a 5 5, 0, 0, 0, -5 -5" transform="rotate(90,200,110)"/><path d="M 195 125v 10h 10v -5a 5 5, 0, 0, 0, -5 -5" transform="rotate(-90,200,130)"/><rect x="195" y="135" width="10" height="10" transform="rotate(0,200,140)"/><rect x="195" y="145" width="10" height="10" transform="rotate(0,200,150)"/><rect x="195" y="175" width="10" height="10" transform="rotate(0,200,180)"/><path d="M 195 205v 10h 10v -5a 5 5, 0, 0, 0, -5 -5" transform="rotate(-90,200,210)"/><rect x="195" y="215" width="10" height="10" transform="rotate(0,200,220)"/><rect x="195" y="225" width="10" height="10" transform="rotate(0,200,230)"/><rect x="195" y="255" width="10" height="10" transform="rotate(0,200,260)"/><rect x="195" y="265" width="10" height="10" transform="rotate(0,200,270)"/><path d="M 195 285v 5a 5 5, 0, 0, 0, 5 5h 5v -5a 5 5, 0, 0, 0, -5 -5" transform="rotate(90,200,290)"/><path d="M 205 15v 5a 5 5, 0, 0, 0, 5 5h 5v -5a 5 5, 0, 0, 0, -5 -5" transform="rotate(90,210,20)"/><path d="M 205 55v 10h 10v -5a 5 5, 0, 0, 0, -5 -5" transform="rotate(-90,210,60)"/><path d="M 205 65v 10h 10v -5a 5 5, 0, 0, 0, -5 -5" transform="rotate(90,210,70)"/><rect x="205" y="85" width="10" height="10" transform="rotate(0,210,90)"/><rect x="205" y="135" width="10" height="10" transform="rotate(0,210,140)"/><path d="M 205 145v 10h 10v -5a 5 5, 0, 0, 0, -5 -5" transform="rotate(90,210,150)"/><path d="M 205 165v 10h 10v -5a 5 5, 0, 0, 0, -5 -5" transform="rotate(-90,210,170)"/><path d="M 205 175v 10h 10v -5a 5 5, 0, 0, 0, -5 -5" transform="rotate(90,210,180)"/><rect x="205" y="205" width="10" height="10" transform="rotate(0,210,210)"/><rect x="205" y="215" width="10" height="10" transform="rotate(0,210,220)"/><rect x="205" y="225" width="10" height="10" transform="rotate(0,210,230)"/><rect x="205" y="235" width="10" height="10" transform="rotate(0,210,240)"/><rect x="205" y="245" width="10" height="10" transform="rotate(0,210,250)"/><path d="M 205 265v 10h 10v -5a 5 5, 0, 0, 0, -5 -5" transform="rotate(90,210,270)"/><rect x="215" y="85" width="10" height="10" transform="rotate(0,220,90)"/><rect x="215" y="95" width="10" height="10" transform="rotate(0,220,100)"/><rect x="215" y="105" width="10" height="10" transform="rotate(0,220,110)"/><path d="M 215 125v 10h 10v -5a 5 5, 0, 0, 0, -5 -5" transform="rotate(-90,220,130)"/><path d="M 215 135v 10h 10v -5a 5 5, 0, 0, 0, -5 -5" transform="rotate(90,220,140)"/><rect x="215" y="165" width="10" height="10" transform="rotate(0,220,170)"/><path d="M 215 185v 5a 5 5, 0, 0, 0, 5 5h 5v -5a 5 5, 0, 0, 0, -5 -5" transform="rotate(90,220,190)"/><rect x="215" y="205" width="10" height="10" transform="rotate(0,220,210)"/><rect x="215" y="245" width="10" height="10" transform="rotate(0,220,250)"/><path d="M 215 255v 10h 10v -5a 5 5, 0, 0, 0, -5 -5" transform="rotate(90,220,260)"/><path d="M 215 275v 10h 10v -5a 5 5, 0, 0, 0, -5 -5" transform="rotate(-90,220,280)"/><path d="M 215 285v 10h 10v -5a 5 5, 0, 0, 0, -5 -5" transform="rotate(90,220,290)"/><rect x="225" y="105" width="10" height="10" transform="rotate(0,230,110)"/><rect x="225" y="115" width="10" height="10" transform="rotate(0,230,120)"/><rect x="225" y="125" width="10" height="10" transform="rotate(0,230,130)"/><path d="M 225 145v 5a 5 5, 0, 0, 0, 5 5h 5v -5a 5 5, 0, 0, 0, -5 -5" transform="rotate(90,230,150)"/><rect x="225" y="165" width="10" height="10" transform="rotate(0,230,170)"/><path d="M 225 175v 10h 10v -5a 5 5, 0, 0, 0, -5 -5" transform="rotate(90,230,180)"/><path d="M 225 195v 10h 10v -5a 5 5, 0, 0, 0, -5 -5" transform="rotate(-90,230,200)"/><rect x="225" y="205" width="10" height="10" transform="rotate(0,230,210)"/><path d="M 225 225v 5a 5 5, 0, 0, 0, 5 5h 5v -5a 5 5, 0, 0, 0, -5 -5" transform="rotate(90,230,230)"/><rect x="225" y="245" width="10" height="10" transform="rotate(0,230,250)"/><path d="M 225 265v 10h 10v -5a 5 5, 0, 0, 0, -5 -5" transform="rotate(-90,230,270)"/><rect x="225" y="275" width="10" height="10" transform="rotate(0,230,280)"/><path d="M 235 85v 5a 5 5, 0, 0, 0, 5 5h 5v -5a 5 5, 0, 0, 0, -5 -5" transform="rotate(90,240,90)"/><rect x="235" y="125" width="10" height="10" transform="rotate(0,240,130)"/><rect x="235" y="135" width="10" height="10" transform="rotate(0,240,140)"/><path d="M 235 155v 10h 10v -5a 5 5, 0, 0, 0, -5 -5" transform="rotate(-90,240,160)"/><path d="M 235 165v 10h 10v -5a 5 5, 0, 0, 0, -5 -5" transform="rotate(90,240,170)"/><path d="M 235 185v 10h 10v -5a 5 5, 0, 0, 0, -5 -5" transform="rotate(-90,240,190)"/><rect x="235" y="205" width="10" height="10" transform="rotate(0,240,210)"/><rect x="235" y="245" width="10" height="10" transform="rotate(0,240,250)"/><path d="M 235 275v 10h 10v -5a 5 5, 0, 0, 0, -5 -5" transform="rotate(90,240,280)"/><path d="M 245 95v 5a 5 5, 0, 0, 0, 5 5h 5v -5a 5 5, 0, 0, 0, -5 -5" transform="rotate(90,250,100)"/><path d="M 245 115v 10h 10v -5a 5 5, 0, 0, 0, -5 -5" transform="rotate(-90,250,120)"/><rect x="245" y="125" width="10" height="10" transform="rotate(0,250,130)"/><rect x="245" y="135" width="10" height="10" transform="rotate(0,250,140)"/><rect x="245" y="145" width="10" height="10" transform="rotate(0,250,150)"/><path d="M 245 155v 10h 10v -5a 5 5, 0, 0, 0, -5 -5" transform="rotate(90,250,160)"/><rect x="245" y="185" width="10" height="10" transform="rotate(0,250,190)"/><rect x="245" y="205" width="10" height="10" transform="rotate(0,250,210)"/><rect x="245" y="215" width="10" height="10" transform="rotate(0,250,220)"/><rect x="245" y="225" width="10" height="10" transform="rotate(0,250,230)"/><rect x="245" y="235" width="10" height="10" transform="rotate(0,250,240)"/><rect x="245" y="245" width="10" height="10" transform="rotate(0,250,250)"/><rect x="245" y="255" width="10" height="10" transform="rotate(0,250,260)"/><rect x="245" y="265" width="10" height="10" transform="rotate(0,250,270)"/><path d="M 245 285v 5a 5 5, 0, 0, 0, 5 5h 5v -5a 5 5, 0, 0, 0, -5 -5" transform="rotate(90,250,290)"/><path d="M 255 85v 10h 10v -5a 5 5, 0, 0, 0, -5 -5" transform="rotate(-90,260,90)"/><rect x="255" y="115" width="10" height="10" transform="rotate(0,260,120)"/><path d="M 255 125v 10h 10v -5a 5 5, 0, 0, 0, -5 -5" transform="rotate(90,260,130)"/><path d="M 255 165v 10h 10v -5a 5 5, 0, 0, 0, -5 -5" transform="rotate(-90,260,170)"/><rect x="255" y="185" width="10" height="10" transform="rotate(0,260,190)"/><path d="M 255 195v 10h 10v -5a 5 5, 0, 0, 0, -5 -5" transform="rotate(90,260,200)"/><rect x="255" y="245" width="10" height="10" transform="rotate(0,260,250)"/><rect x="255" y="255" width="10" height="10" transform="rotate(0,260,260)"/><rect x="255" y="265" width="10" height="10" transform="rotate(0,260,270)"/><path d="M 255 275v 10h 10v -5a 5 5, 0, 0, 0, -5 -5" transform="rotate(90,260,280)"/><rect x="265" y="85" width="10" height="10" transform="rotate(0,270,90)"/><rect x="265" y="95" width="10" height="10" transform="rotate(0,270,100)"/><rect x="265" y="105" width="10" height="10" transform="rotate(0,270,110)"/><path d="M 265 145v 10h 10v -5a 5 5, 0, 0, 0, -5 -5" transform="rotate(-90,270,150)"/><rect x="265" y="155" width="10" height="10" transform="rotate(0,270,160)"/><rect x="265" y="165" width="10" height="10" transform="rotate(0,270,170)"/><rect x="265" y="175" width="10" height="10" transform="rotate(0,270,180)"/><rect x="265" y="185" width="10" height="10" transform="rotate(0,270,190)"/><path d="M 265 205v 10h 10v -5a 5 5, 0, 0, 0, -5 -5" transform="rotate(-90,270,210)"/><path d="M 265 235v 5a 5 5, 0, 0, 0, 5 5h 5v -5a 5 5, 0, 0, 0, -5 -5" transform="rotate(90,270,240)"/><rect x="265" y="255" width="10" height="10" transform="rotate(0,270,260)"/><path d="M 265 285v 5a 5 5, 0, 0, 0, 5 5h 5v -5a 5 5, 0, 0, 0, -5 -5" transform="rotate(90,270,290)"/><rect x="275" y="85" width="10" height="10" transform="rotate(0,280,90)"/><rect x="275" y="95" width="10" height="10" transform="rotate(0,280,100)"/><rect x="275" y="105" width="10" height="10" transform="rotate(0,280,110)"/><path d="M 275 125v 10h 10v -5a 5 5, 0, 0, 0, -5 -5" transform="rotate(-90,280,130)"/><path d="M 275 145v 10h 10v -5a 5 5, 0, 0, 0, -5 -5" transform="rotate(90,280,150)"/><path d="M 275 165v 10h 10v -5a 5 5, 0, 0, 0, -5 -5" transform="rotate(90,280,170)"/><rect x="275" y="185" width="10" height="10" transform="rotate(0,280,190)"/><rect x="275" y="195" width="10" height="10" transform="rotate(0,280,200)"/><rect x="275" y="205" width="10" height="10" transform="rotate(0,280,210)"/><rect x="275" y="215" width="10" height="10" transform="rotate(0,280,220)"/><rect x="275" y="225" width="10" height="10" transform="rotate(0,280,230)"/><path d="M 275 245v 10h 10v -5a 5 5, 0, 0, 0, -5 -5" transform="rotate(-90,280,250)"/><path d="M 275 255v 10h 10v -5a 5 5, 0, 0, 0, -5 -5" transform="rotate(90,280,260)"/><path d="M 275 275v 10h 10v -5a 5 5, 0, 0, 0, -5 -5" transform="rotate(-90,280,280)"/><rect x="285" y="95" width="10" height="10" transform="rotate(0,290,100)"/><rect x="285" y="105" width="10" height="10" transform="rotate(0,290,110)"/><rect x="285" y="115" width="10" height="10" transform="rotate(0,290,120)"/><path d="M 285 125v 10h 10v -5a 5 5, 0, 0, 0, -5 -5" transform="rotate(90,290,130)"/><path d="M 285 155v 5a 5 5, 0, 0, 0, 5 5h 5v -5a 5 5, 0, 0, 0, -5 -5" transform="rotate(90,290,160)"/><rect x="285" y="185" width="10" height="10" transform="rotate(0,290,190)"/><rect x="285" y="195" width="10" height="10" transform="rotate(0,290,200)"/><path d="M 285 205v 10h 10v -5a 5 5, 0, 0, 0, -5 -5" transform="rotate(90,290,210)"/><rect x="285" y="225" width="10" height="10" transform="rotate(0,290,230)"/><path d="M 285 235v 10h 10v -5a 5 5, 0, 0, 0, -5 -5" transform="rotate(90,290,240)"/><path d="M 285 275v 10h 10v -5a 5 5, 0, 0, 0, -5 -5" transform="rotate(90,290,280)"/></g><g class="corners-square-color-0-0"><path clip-rule="evenodd" d="M 40 5a 35 35 0 1 0 0.1 0zm 0 10a 25 25 0 1 1 -0.1 0Z" transform="rotate(0,40,40)"/></g><g class="corners-dot-color-0-0"><circle cx="40" cy="40" r="15" transform="rotate(0,40,40)"/></g><g class="corners-square-color-1-0"><path clip-rule="evenodd" d="M 260 5a 35 35 0 1 0 0.1 0zm 0 10a 25 25 0 1 1 -0.1 0Z" transform="rotate(90,260,40)"/></g><g class="corners-dot-color-1-0"><circle cx="260" cy="40" r="15" transform="rotate(90,260,40)"/></g><g class="corners-square-color-0-1"><path clip-rule="evenodd" d="M 40 225a 35 35 0 1 0 0.1 0zm 0 10a 25 25 0 1 1 -0.1 0Z" transform="rotate(-90,40,260)"/></g><g class="corners-dot-color-0-1"><circle cx="40" cy="260" r="15" transform="rotate(-90,40,260)"/></g></svg></g></g></svg></svg>